<svg xmlns="http://www.w3.org/2000/svg" width="1920" height="1260" viewBox="0 0 1920 1260">
  <defs>
    <style>
      .cls-1 {
        fill: #030303;
        fill-rule: evenodd;
      }
    </style>
  </defs>
  <path id="Color_Fill_1" data-name="Color Fill 1" class="cls-1" d="M5,0L974,1l484-1,172,3,103,2q91.95,0.018,186,0c0.06,265.937-.05,528.452,0,795-41-3.416-84.41,1.17-127-3-14.24-1.395-34.87-12.37-41-9,25.18-63.365,3.03-115.423-64-126-28.11-4.436-46.8,14.619-71,17-1.96-18.121,3.46-43.439-5-56-30.49-13.977-79.42-9.769-123-17h-46l-111-1c-54.35,0-114.51-5.336-165,3-43.38,7.161-105.17-8.227-129,18q-0.495,25-1,50c-1.85,26.156,4.64,64.525,10,88,3.59,15.734,8.45,32.576,1,41l-121-8c-15.9,2.634-38.5-.908-57,2-41.545,6.53-123.972,6.651-166,0H632l-101,1-23,9c-6.2.54-23.175-8.433-32-10-44.364-7.878-95.457,4.493-135-2-30.45-5-86.184-2.328-114,2H80L6,802C-4.023,746.992,2,667.334,2,602l1-55V375L2,239V174ZM1681,690c35.78,0.322,66.91,32.137,53,74-8.9,26.784-50.51,56.012-82,60-12.62-16.637-31.33-30.2-47-44-1.74-8.529,1.15-13.622,5-19,1.33,1,2.67,2,4,3-2.95-5.655-1.8-6.944,4-11,7.59-17.837,18.17-47.116,35-56Zm69,98c0.33,0.667.67,1.333,1,2C1750.67,789.333,1750.33,788.667,1750,788Zm-1,2q-2.505,7.5-5,15c-0.67-.333-1.33-0.667-2-1-0.33-1-.67-2-1-3Q1745.005,795.5,1749,790Z"/>
</svg>
